<?xml version="1.0" encoding="utf-8"?><!--Generator: Adobe Illustrator 19.0.1, SVG Export Plug-In . SVG Version: 6.00 Build 0)--><svg xmlns="http://www.w3.org/2000/svg" viewBox="-136.2 81 314.4 400"><style>.st2{opacity:.2;enable-background:new}.st3{fill:#fff}.st4{fill:#fcfcfc}.st5{fill:#fafbfc}</style><g id="Слой_1"><path d="M21 81s144.8-5.3 156.5 94.8S53.3 472.4 21 481V81z" fill="#4f2b4f"/><path d="M21 81s-144.8-5.3-156.5 94.8S-11.3 472.4 21 481V81z" fill="#389adc"/><g class="st2"><circle class="st3" cx="-73.1" cy="174.1" r="24.2"/></g><g class="st2"><circle class="st3" cx="96.9" cy="204.1" r="24.2"/></g><g class="st2"><circle class="st3" cx="-57.6" cy="259.4" r="11.9"/></g><g class="st2"><circle class="st3" cx="52.4" cy="319.4" r="11.9"/></g><g class="st2"><circle class="st3" cx="42.4" cy="409.4" r="11.9"/></g><g class="st2"><circle class="st3" cx="-.6" cy="409.4" r="11.9"/></g></g><g id="Layer_2"><path class="st4" d="M-109.2 180c-1.4-.7-2.5-1.7-3.4-3-3.3-5-4.9-7.5-8.2-12.4-.6-.9-.9-1.8-1.1-2.8-.2-1-.2-2 0-3.1.2-1 .6-2 1.2-3 .8-1.4 2-2.6 3.6-3.5.6-.4.9-.5 1.5-.9 1-.6 2.1-1 3.2-1.3 1.1-.2 2.2-.3 3.3-.2 1.1.1 2.1.4 3 .9 1.4.7 2.4 1.8 3.2 3.2.1.2.2.4.2.7 0 .3-.1.5-.2.7-.1.2-.3.4-.5.5-1.2.7-1.8 1-3 1.7-.2.1-.5.2-.8.2-.3 0-.5-.1-.8-.2-.2-.1-.4-.3-.5-.5 0 0 0-.1-.1-.1-.3-.6-.8-1-1.3-1.3-.6-.3-1.2-.4-1.8-.3-.7.1-1.3.3-2 .7-.1 0-.1.1-.2.1-.6.4-1.1.8-1.5 1.4-.4.6-.6 1.2-.6 1.9s.1 1.2.5 1.8c3.1 5 4.7 7.5 7.8 12.5.3.5.8 1 1.4 1.3.6.3 1.2.4 1.9.4s1.3-.2 1.8-.5c.1 0 .1-.1.2-.1.6-.3 1-.8 1.3-1.4s.5-1.2.5-1.8c0-.6-.2-1.3-.5-1.8-.1-.2-.2-.4-.2-.7 0-.2.1-.5.2-.7.1-.2.3-.4.5-.5 1.2-.7 1.7-1 2.9-1.6.2-.1.5-.2.7-.2.2 0 .5.1.7.2.2.1.4.3.5.5 0 .1.1.1.1.2.5.9.8 1.9 1 2.9.2 1 .1 2 0 3-.2 1-.5 1.9-1 2.8-.8 1.4-1.8 2.5-3.2 3.3-.5.3-.8.5-1.3.8-.9.5-1.8.9-2.9 1.1s-2 .2-3 .1c-1.3-.2-2.2-.5-3.1-1zM-88.9 171.4c-4.5-8.6-9-17.2-13.5-25.7-.1-.2-.1-.4-.1-.6 0-.2.1-.4.3-.6.1-.2.3-.4.5-.5 1.4-.7 2.1-1.1 3.5-1.8.4-.2.7-.2 1.1-.2.3.1.6.3.7.6 2 4 2.9 6 4.9 10 3.4-1.7 5.1-2.5 8.6-4.1-1.8-4-2.7-6.1-4.5-10.1-.1-.2-.1-.4 0-.6l.3-.6c.2-.2.4-.3.6-.4l3.5-1.5c.2-.1.5-.1.7-.1.3 0 .5.1.7.2.2.1.3.3.4.4 3.7 8.9 7.4 17.9 11.2 26.8.1.2.1.4.1.6 0 .2-.1.4-.3.6-.1.2-.3.3-.5.4-1.2.5-1.8.8-3.1 1.3-.2.1-.4.1-.7.1-.2 0-.4-.1-.6-.2-.2-.1-.3-.3-.4-.5-2-4.6-3.1-6.9-5.1-11.4-3.4 1.5-5 2.3-8.4 4 2.2 4.5 3.3 6.7 5.5 11.2.1.2.1.4.1.6 0 .2-.1.4-.2.6-.1.2-.3.3-.5.4-1.2.6-1.8.9-3.1 1.6-.2.1-.4.1-.6.1-.2 0-.4-.1-.6-.2-.2 0-.4-.2-.5-.4zM-66.5 161c-3.6-9-7.1-18-10.7-27-.1-.3-.1-.6.1-.9.2-.3.4-.5.8-.7 5.7-2.2 8.6-3.3 14.5-5.2.4-.1.7-.1 1.1 0 .3.1.5.4.6.7.4 1.2.6 1.8.9 3 .1.2.1.4 0 .6l-.3.6c-.2.2-.4.3-.6.4-3.9 1.3-5.9 1.9-9.7 3.4 1 2.6 1.4 3.9 2.4 6.5 2.9-1.1 4.3-1.6 7.2-2.5.4-.1.7-.1.9 0 .3.1.5.3.6.7l1 3c.1.3.1.6-.1.9s-.4.5-.7.6c-2.8.9-4.2 1.4-7 2.5 1.1 3.1 1.7 4.6 2.8 7.7 3.6-1.3 5.4-1.9 9-3.1.3-.1.7-.1 1 0 .3.1.5.4.6.7.4 1.2.6 1.8.9 3 .1.2.1.4 0 .6s-.1.4-.3.6c-.1.2-.3.3-.5.3-5.1 1.7-7.7 2.6-12.8 4.6-.3.1-.7.1-1 0-.4-.4-.6-.6-.7-1zM-47.3 151.5c-1.1-1.1-1.9-2.3-2.4-3.9-1.7-5.7-2.6-8.6-4.3-14.3-.3-1-.4-2-.3-3 .1-1 .4-2 .8-2.9.5-.9 1.1-1.8 1.9-2.5 1.2-1.1 2.6-1.9 4.3-2.3.6-.2 1-.3 1.6-.4 1.1-.3 2.2-.4 3.4-.3 1.1.1 2.2.3 3.1.8 1 .4 1.8 1 2.6 1.7 1.1 1.1 1.8 2.4 2.1 4 .1.2.1.5 0 .7-.1.2-.2.4-.4.6-.2.2-.4.3-.6.3-1.3.3-2 .4-3.3.8-.3.1-.5.1-.8 0-.3-.1-.5-.2-.7-.4-.2-.2-.3-.4-.4-.6v-.1c-.2-.6-.5-1.2-.9-1.6-.4-.4-1-.7-1.6-.9-.6-.1-1.3-.1-2 .1-.1 0-.1 0-.2.1-.7.2-1.3.5-1.8.9-.5.5-.9 1-1.1 1.6-.2.6-.2 1.2 0 1.8 1.6 5.7 2.3 8.5 3.9 14.2.2.6.5 1.2 1 1.6.5.5 1 .8 1.7 1s1.2.2 1.8 0h.2c.6-.2 1.2-.5 1.6-.9s.8-1 .9-1.6c.2-.6.2-1.3 0-1.9-.1-.2 0-.5 0-.7.1-.2.2-.4.4-.6s.4-.3.6-.3c1.3-.3 1.9-.4 3.2-.7.2-.1.5 0 .7 0 .2.1.4.2.6.4.2.2.3.4.3.6v.2c.2 1 .3 2.1.1 3.1-.1 1-.4 2-.9 2.9-.4.9-1 1.7-1.7 2.4-1.1 1.1-2.4 1.8-3.9 2.2-.6.1-.8.2-1.4.4-1 .3-2 .3-3 .2-1-.1-1.9-.4-2.9-.8-.7-.6-1.5-1.2-2.2-1.9zM-26.1 149.4c-1.9-9.6-3.8-19.1-5.7-28.7 0-.2 0-.4.1-.6.1-.2.2-.4.4-.5l.6-.3c1.5-.3 2.2-.4 3.7-.7.2 0 .4 0 .6.1.2.1.4.2.5.4.1.2.2.3.3.5.6 3.3.9 4.9 1.4 8.2 1.8-3.8 2.8-5.7 4.8-9.5.2-.3.4-.5.7-.7.3-.2.5-.3.8-.4 1.5-.2 2.3-.3 3.8-.6.3 0 .6 0 .9.1.3.1.5.3.7.4.2.2.3.4.3.6 0 .3 0 .5-.1.7-3 5.2-4.4 7.9-7 13.2 5.2 5.4 7.7 8.1 12.5 13.7.2.3.3.6.3.8 0 .3 0 .5-.1.7-.1.2-.2.4-.4.6-.2.1-.4.2-.7.3-1.5.2-2.3.3-3.8.5-.3 0-.5 0-.7-.1-.2-.1-.5-.3-.6-.6-3.7-4.2-5.6-6.3-9.5-10.4.8 4.6 1.2 6.8 2 11.4 0 .2 0 .4-.1.5-.1.2-.2.3-.3.5-.1.1-.3.2-.5.2-1.3.2-2 .4-3.3.6h-.6c-.2-.1-.4-.2-.5-.3-.3-.2-.4-.4-.5-.6zM6.2 145.1C5.6 135 5.4 130 4.8 120c-1.6.1-2.4.1-4.1.3-.4 0-.8 0-1.1-.2-.3-.2-.4-.4-.5-.8-.1-1.2-.1-1.8-.2-3 0-.3.1-.6.3-.8.3-.2.6-.3 1.1-.4 6-.4 9-.6 15-.7.3 0 .5 0 .7.1.2.1.4.2.5.4.1.2.2.3.2.5v3c0 .2-.1.4-.2.5s-.3.3-.5.4c-.2.1-.5.2-.7.2-1.7 0-2.6 0-4.3.1.3 10.1.5 15.1.8 25.1 0 .3-.1.6-.3.9-.2.2-.5.4-.8.4-1.3.1-2 .1-3.3.2-.2 0-.4 0-.6-.1-.2-.1-.3-.2-.5-.4 0-.2-.1-.4-.1-.6zM20 144.7v-29.1c0-.2.1-.4.2-.6.1-.2.3-.3.5-.4.2-.1.4-.2.6-.2 1.5 0 2.3 0 3.8.1.4 0 .7.1 1 .4.3.2.4.5.4.8-.1 4.4-.2 6.7-.3 11.1 3.7.1 5.6.2 9.3.4.3-4.4.4-6.6.7-11 0-.2.1-.4.2-.5.1-.2.3-.3.6-.4.2-.1.5-.1.7-.1 1.5.1 2.2.2 3.7.3.2 0 .5.1.7.2.2.1.4.3.5.5.1.2.2.4.2.6-.9 9.7-1.7 19.3-2.6 29 0 .2-.1.4-.2.6-.1.2-.3.3-.5.4-.2.1-.4.1-.6.1-1.3-.1-2-.2-3.3-.2-.2 0-.4-.1-.6-.2-.2-.1-.3-.3-.4-.5-.1-.2-.1-.4-.1-.6.3-5 .5-7.5.8-12.5-3.6-.2-5.4-.3-9.1-.4-.1 5-.2 7.5-.3 12.5 0 .2-.1.4-.2.6-.1.2-.3.3-.5.4-.2.1-.4.2-.6.1h-3.4c-.2 0-.4-.1-.6-.2-.2-.1-.3-.3-.4-.4-.2-.4-.2-.6-.2-.8zM44.7 146.1c1-9.6 2.1-19.3 3.1-28.9 0-.3.2-.6.5-.8s.6-.3 1-.2c1.5.2 2.3.3 3.8.5.2 0 .4.1.6.2.2.1.3.3.4.5.1.2.1.4.1.6-1.3 9.6-2.6 19.2-3.8 28.9 0 .2-.1.4-.2.6-.1.2-.3.3-.5.4-.2.1-.4.1-.6.1-1.3-.2-2-.3-3.3-.4-.3 0-.6-.2-.8-.4-.3-.4-.4-.7-.3-1.1zM56.7 146.8c-.6-.9-1.1-2-1.3-3.1-.3-1.1-.3-2.2-.2-3.4 0-.3.1-.5.3-.7.2-.2.4-.4.6-.5.3-.1.5-.1.8-.1 1.3.2 2 .3 3.3.5H60.5c.3.2.5.4.6.6.1.3.2.5.1.8 0 .2 0 .3-.1.4-.1.5-.1.9.1 1.3.1.4.3.8.6 1.2s.6.6 1.1.8c.3.1.6.3.9.3h.5c.6.1 1.1 0 1.6-.2s.9-.5 1.3-.9c.3-.4.6-.8.7-1.4.2-.9.3-1.3.5-2.2.1-.8.1-1.5-.1-2-.2-.6-.7-1.1-1.2-1.5-.7-.5-1.8-1-3.4-1.3-.4-.1-.5-.2-.9-.3-1.8-.5-3.1-1.2-3.9-2.2-.8-1-1.3-2.1-1.4-3.3-.1-1.2-.1-2.5.1-3.8.1-.6.2-.9.3-1.5.1-.2.1-.4.1-.6.3-1 .6-1.7.8-2.2.2-.5.5-.9.8-1.3.3-.4.8-.7 1.4-1.1.9-.6 2-.9 3.1-1.1 1.2-.2 2.4-.1 3.8.2.6.1.9.2 1.6.3 1.2.2 2.3.7 3.3 1.3 1 .6 1.8 1.4 2.5 2.3.7.9 1.1 1.9 1.3 3 .2 1.1.2 2.2-.1 3.3-.1.2-.2.5-.3.6-.2.2-.4.3-.6.4-.2.1-.5.1-.7 0-1.3-.3-2-.4-3.4-.7-.4-.1-.6-.3-.8-.6-.2-.3-.3-.6-.2-.9 0-.1 0-.2.1-.3.1-.4.1-.8-.1-1.3-.1-.4-.3-.8-.7-1.1-.3-.3-.7-.6-1.1-.9-.3-.1-.6-.3-1-.3-.2 0-.2 0-.4-.1H67c-.6-.1-1.2 0-1.7.2s-.9.4-1.3.8c-.3.4-.5.8-.6 1.3-.2 1-.3 1.5-.4 2.6 0 .6.1 1.1.4 1.5.3.4.8.7 1.4 1 .7.3 1.6.5 2.7.8 2.8.7 4.8 2 5.8 3.7 1.1 1.7 1.3 4 .6 6.7-.2.8-.4 1.5-.6 2.2-.2.7-.6 1.4-1 2.1-.4.7-1 1.4-1.6 1.9-1 1-2.2 1.6-3.5 2-1.3.4-2.6.5-3.9.2-.6-.1-.8-.2-1.4-.3-1.1-.2-2.1-.6-3-1.2-.7-.2-1.5-1-2.2-1.9zM84.3 150.8c-.4-1.5-.4-3.1 0-4.6 1.6-5.7 2.4-8.6 4-14.3.3-1 .7-1.9 1.4-2.7s1.4-1.5 2.3-2c.9-.5 2-.9 3.1-1.1 1.6-.3 3.3-.2 5.1.4.7.2 1 .3 1.6.5 1.1.4 2.2.9 3.1 1.6.9.7 1.7 1.5 2.3 2.4.6.9 1.1 1.9 1.3 2.9.4 1.5.3 3-.3 4.5-2 5.6-3.1 8.4-5.1 13.9-.4 1-.9 1.8-1.5 2.6-.7.8-1.5 1.4-2.4 1.9-.9.5-1.9.9-2.9 1.1-1.5.3-3 .2-4.5-.2-.6-.2-.9-.3-1.4-.5-1-.3-1.9-.8-2.7-1.4s-1.5-1.4-2.1-2.2c-.6-.8-1-1.8-1.3-2.8zm8.4 1.7c.6.2 1.3.2 1.9.1.6-.1 1.2-.4 1.7-.9.5-.4.8-1 1.1-1.6 1.9-5.6 2.8-8.4 4.7-13.9.2-.6.2-1.2.1-1.8-.2-.6-.5-1.2-1-1.6-.5-.5-1.1-.8-1.8-1.1h-.1c-.7-.2-1.4-.3-2.1-.2-.7.1-1.3.4-1.8.8s-.8.9-1 1.5c-1.7 5.6-2.6 8.4-4.3 14.1-.2.6-.2 1.3 0 1.9.2.6.5 1.2.9 1.7s1 .8 1.6 1.1c0-.2.1-.2.1-.1zM106.7 158.2c-.3-1.6-.2-3.1.4-4.6 3-7.7 4.5-11.6 7.5-19.4.2-.5.4-.8.7-1.1.3-.2.6-.3.9-.3.4 0 .8.1 1.3.3.7.3 1 .4 1.7.7.5.2.8.3 1 .4.2.1.3.2.4.2.1.1.2.2.3.4.1.2.2.4.1.7 0 .3-.1.6-.3 1.1-3.2 7.6-4.7 11.4-7.9 18.9-.3.6-.3 1.2-.2 1.9.1.7.3 1.2.7 1.8.4.5.9.9 1.5 1.2.3.1.4.2.7.3.6.3 1.3.4 1.9.3s1.3-.3 1.8-.7c.5-.4 1-.9 1.2-1.5 3.4-7.4 5.2-11.2 8.6-18.6.2-.5.5-.8.7-1 .3-.2.6-.3.9-.2.3 0 .8.2 1.2.4.7.3 1.1.5 1.9.9.6.3 1 .5 1.2.8.3.2.4.5.4.9 0 .3-.1.7-.3 1.2-3.7 7.4-5.5 11.2-9.2 18.6-.5.9-1.1 1.8-1.9 2.5-.8.7-1.6 1.2-2.6 1.6-1 .4-2 .6-3.1.7-1.6.1-3.1-.1-4.6-.8-.6-.3-.9-.4-1.5-.7-1-.4-1.9-1-2.7-1.7-.8-.7-1.4-1.5-1.9-2.4-.3-.8-.6-1.8-.8-2.8zM129 171.9c4.7-8.9 7.1-13.3 11.8-22.2-1.5-.8-2.2-1.2-3.7-1.9-.4-.2-.7-.5-.8-.8-.2-.3-.2-.6 0-.9.5-1.1.8-1.6 1.4-2.7.1-.3.4-.5.7-.5.3 0 .7 0 1.1.2 5.5 2.8 8.2 4.3 13.6 7.4.2.1.4.3.6.5.2.2.2.4.3.6 0 .2 0 .4-.1.6-.6 1-.9 1.6-1.5 2.6-.1.2-.2.3-.4.4-.2.1-.4.1-.7.1-.3 0-.5-.1-.7-.3-1.5-.9-2.3-1.3-3.8-2.2-4.9 8.8-7.4 13.2-12.3 21.9-.2.3-.4.5-.7.6-.3.1-.6.1-.9-.1-1.2-.7-1.8-1-3-1.7-.2-.1-.3-.2-.4-.4-.1-.2-.2-.4-.2-.6-.5-.2-.4-.4-.3-.6zM146.2 172.3c4.2-7.2 6.3-10.7 10.5-17.9.3-.5.6-.7.9-.8.4 0 .8.1 1.4.5 1.6 1 2.4 1.5 3.9 2.5.4.3.7.5.9.7.2.2.3.4.3.6s-.1.5-.3.8c-4.8 6.9-7.2 10.3-11.9 17.3-.2.2-.4.4-.7.4-.3 0-.6-.1-.9-.3-1.4-.9-2.1-1.4-3.6-2.3-.3-.2-.5-.4-.6-.7 0-.3 0-.5.1-.8zm-4.2 6.5c.7-1.2 1.1-1.7 1.8-2.9.2-.3.4-.5.6-.6.3-.1.5-.2.8-.2.3 0 .6.1.9.3 1.2.8 1.9 1.2 3.1 2 .3.2.5.4.7.7.2.3.2.5.2.8 0 .3-.1.6-.3.8-.8 1.1-1.1 1.7-1.9 2.9-.2.3-.4.5-.7.6-.3.1-.6.2-.9.2-.3 0-.6-.1-.9-.3-1.2-.8-1.8-1.2-3-1.9-.3-.2-.5-.4-.6-.6-.1-.3-.2-.5-.2-.8.1-.5.2-.7.4-1z"/><g><path class="st5" d="M-83.9 251.8c-1.5-2.6-2.2-5.4-2.2-8.4v-28.2c0-2 .3-3.9 1-5.7.6-1.8 1.6-3.4 2.8-4.8 1.2-1.4 2.7-2.6 4.3-3.6 2.4-1.4 5.1-2.1 8.2-2.1h2.7c1.8 0 3.6.2 5.3.7 1.7.5 3.3 1.2 4.8 2.3s2.7 2.2 3.7 3.7c1.6 2.3 2.4 4.9 2.5 8.1 0 .4-.1.7-.4 1s-.7.4-1.1.4h-7.2c-.5 0-1-.1-1.3-.4s-.6-.6-.6-1.1c-.2-1.4-.6-2.5-1.2-3.2s-1.4-1.3-2.3-1.6c-.9-.3-2.1-.4-3.4-.4h-.7c-1.2 0-2.4.3-3.4.9-1 .6-1.9 1.4-2.5 2.4-.6 1-.9 2.1-.9 3.3v28c0 1.2.3 2.4.9 3.4.6 1.1 1.5 1.9 2.5 2.6 1.1.6 2.2 1 3.4 1h.3c1.2 0 2.3-.3 3.3-1 1-.6 1.8-1.5 2.4-2.6.6-1.1.9-2.2.9-3.5v-4h-4.4c-.5 0-.9-.2-1.2-.5-.4-.4-.5-.8-.5-1.2V231c0-.4.1-.7.3-1 .2-.3.5-.6.8-.8.3-.2.7-.3 1-.3h13.3c.4 0 .7.1 1 .3.3.2.6.5.7.8.2.3.3.7.3 1v12.4c0 2-.3 3.9-1 5.8-.7 1.8-1.6 3.5-2.8 5-1.2 1.5-2.6 2.8-4.3 3.8-2.5 1.5-5.2 2.3-8.2 2.3h-2.7c-1.9 0-3.8-.3-5.6-1-1.8-.7-3.4-1.7-4.9-2.9s-2.6-2.8-3.6-4.6zM-40.9 251.2c-1.5-2.5-2.3-5.3-2.3-8.3l-.1-39.2c0-1 .1-1.8.4-2.3s.7-.9 1.3-1.2 1.3-.3 2.1-.3h4.8c.3 0 .5.1.7.1.2.1.4.2.6.4.3.2.5.6.6 1.1.1.5.2 1.2.2 2.1l.1 38.8c0 1.2.3 2.4.9 3.5.6 1.1 1.4 1.9 2.5 2.5 1 .6 2.1.9 3.3.9h1.4c1.2 0 2.3-.3 3.4-.9 1-.6 1.8-1.5 2.4-2.5.6-1.1.9-2.2.9-3.5l.1-38.8c0-1 .1-1.8.4-2.3.3-.5.7-.9 1.2-1.1.5-.2 1.2-.3 2.1-.3h3.3c1 0 1.8.1 2.3.3.5.2 1 .6 1.2 1.1.3.5.4 1.3.4 2.4l-.1 39.2c0 2-.3 3.9-1 5.7-.7 1.8-1.7 3.5-2.9 4.9s-2.7 2.7-4.4 3.7c-2.6 1.5-5.3 2.3-8.3 2.3h-3.1c-2 0-3.9-.3-5.8-1-1.8-.7-3.5-1.6-5-2.9s-2.6-2.7-3.6-4.4zM1.9 257.3v-55c0-.6.2-1.2.6-1.6s.9-.7 1.6-.7h6.3c.4 0 .7.1 1 .3s.6.5.8.8.3.7.3 1.2v55c0 .4-.1.8-.3 1.2-.2.4-.5.6-.8.8-.3.2-.7.3-1 .3H4.1c-.6 0-1.2-.2-1.6-.7-.4-.4-.6-1-.6-1.6zM28.5 257.1v-47.5h-6.9c-.7 0-1.3-.2-1.8-.6-.5-.4-.7-.9-.7-1.5v-5.7c0-.6.2-1.1.7-1.5.5-.4 1-.6 1.8-.6h24.8c.4 0 .9.1 1.2.3s.7.4.9.7c.2.3.3.6.3 1v5.7c0 .4-.1.7-.3 1-.2.3-.5.6-.9.7s-.8.3-1.2.3h-7.2v47.5c0 .6-.2 1.2-.6 1.6-.4.4-.9.7-1.6.7h-6.3c-.4 0-.7-.1-1.1-.3-.3-.2-.6-.5-.8-.8-.2-.2-.3-.6-.3-1zM50.8 257.7v-.4L62 202.2c.1-.6.5-1.2 1.1-1.6.6-.4 1.3-.6 2-.6h10.7c.8 0 1.5.2 2.1.6.6.4 1 .9 1.1 1.6l11.1 55.1v.4c0 .5-.2 1-.6 1.3-.4.3-.9.5-1.6.5h-7.2c-1.3 0-2-.6-2.2-1.9L76 243.8H65l-2.5 13.9c-.1.7-.4 1.1-.7 1.4s-.8.4-1.5.4H53c-.6 0-1.2-.2-1.6-.5-.4-.4-.6-.8-.6-1.3zm23.7-23.9l-3.7-21.3c0-.1-.1-.3-.2-.3-.1-.1-.2-.1-.3-.1s-.2 0-.3.1c-.1.1-.1.2-.2.3l-3.6 21.3h8.3zM95.4 257.4v-55c0-.4.1-.8.3-1.2.2-.4.5-.7.9-.9.4-.2.8-.3 1.2-.3h16.7c2.6 0 4.9.5 6.8 1.6 2 1 3.5 2.4 4.6 4.2 1.1 1.8 1.6 3.8 1.6 6.1v10.4c0 1.4-.3 2.7-.8 4-.5 1.3-1.3 2.4-2.2 3.5-.9 1-2 1.9-3.3 2.6l.1.2 8.5 25c.1.1.1.3.1.6 0 .4-.2.7-.5.9-.3.2-.7.4-1.2.4h-7.4c-.4 0-.7-.1-1.1-.3-.4-.2-.7-.4-1-.7-.3-.3-.5-.6-.6-.9l-6.9-21.3c-.7-.4-1.4-.6-2.1-.6-.9 0-1.7.3-2.3 1v20.7c0 .6-.2 1-.7 1.4s-1 .6-1.6.6h-6.8c-.7 0-1.2-.2-1.7-.6s-.6-.8-.6-1.4zm16.5-32c.9 0 1.7-.2 2.4-.6.7-.4 1.3-1 1.7-1.6.4-.7.6-1.4.6-2.2v-7.7c0-.9-.2-1.6-.6-2.4-.4-.7-1-1.3-1.7-1.7-.7-.4-1.5-.6-2.4-.6h-4.7c-.3 0-.6.1-.8.4s-.3.5-.3.8V224c0 .4.1.7.4 1s.6.4 1 .4h4.4z"/></g><g><path class="st5" d="M-39.3 336.8c-1.5-2.7-2.3-5.6-2.3-8.8v-29.5c0-2.1.3-4.1 1-5.9.7-1.9 1.6-3.6 2.9-5 1.3-1.5 2.8-2.7 4.5-3.8 2.5-1.5 5.4-2.2 8.5-2.2h2.8c1.9 0 3.7.2 5.5.7 1.8.5 3.4 1.3 5 2.4 1.5 1 2.8 2.3 3.9 3.8 1.6 2.4 2.5 5.2 2.6 8.4 0 .4-.1.8-.4 1.1-.3.3-.7.4-1.2.4H-14c-.6 0-1-.1-1.4-.4-.4-.3-.6-.6-.6-1.1-.2-1.4-.6-2.6-1.3-3.4-.6-.8-1.5-1.3-2.4-1.6s-2.2-.4-3.6-.4h-.4c-1.3 0-2.5.3-3.6.9-1.1.6-1.9 1.4-2.6 2.5-.6 1-1 2.2-1 3.5v29.2c0 1.3.3 2.5 1 3.6s1.5 2 2.6 2.7c1.1.7 2.3 1 3.6 1h.3c1.2 0 2.4-.3 3.4-1s1.9-1.6 2.5-2.7c.6-1.1.9-2.3.9-3.6v-4.2h-4.6c-.5 0-.9-.2-1.3-.6-.4-.4-.6-.8-.6-1.3v-6.6c0-.4.1-.7.3-1.1.2-.3.5-.6.8-.8s.7-.3 1.1-.3h13.8c.4 0 .7.1 1.1.3.3.2.6.5.8.8.2.3.3.7.3 1.1v13c0 2.1-.3 4.1-1 6.1-.7 1.9-1.7 3.7-2.9 5.3-1.3 1.6-2.8 2.9-4.5 4-2.6 1.6-5.4 2.4-8.5 2.4h-2.8c-2 0-4-.4-5.8-1.1-1.9-.7-3.5-1.7-5.1-3-1.5-1.5-2.8-3-3.8-4.8zM4.9 336.6c-1.5-2.7-2.3-5.6-2.3-8.7v-29.2c0-2.1.3-4 1-5.9.7-1.9 1.7-3.6 3-5.1 1.3-1.5 2.8-2.8 4.5-3.8 2.5-1.5 5.4-2.2 8.5-2.2h2.9c2 0 4 .3 5.8 1 1.9.7 3.6 1.6 5.1 2.9 1.5 1.3 2.8 2.7 3.8 4.4 1.5 2.5 2.2 5.4 2.2 8.6l.1 29.3c0 2-.3 4-1 5.9-.7 1.9-1.7 3.6-3 5.2s-2.8 2.9-4.5 3.9c-2.6 1.6-5.4 2.4-8.4 2.4h-2.9c-2 0-4-.4-5.8-1.1-1.9-.7-3.6-1.7-5.1-3-1.6-1.3-2.9-2.8-3.9-4.6zm16.2-1.8c1.2 0 2.4-.3 3.5-1s1.9-1.6 2.5-2.7c.6-1.1.9-2.3.9-3.6v-29c0-1.3-.3-2.4-.9-3.5s-1.5-1.9-2.5-2.5c-1.1-.6-2.3-.9-3.5-.9h-.3c-1.3 0-2.5.3-3.6.9-1.1.6-1.9 1.4-2.6 2.5-.6 1-1 2.2-1 3.5v29c0 1.3.3 2.5 1 3.6.6 1.1 1.5 2 2.6 2.7 1.1.7 2.3 1 3.5 1h.4zM47.2 342.3v-56.7c0-.5.1-1 .4-1.4.2-.4.6-.8 1-1 .4-.3.8-.4 1.3-.4h17.8c2 0 3.9.3 5.7 1 1.8.7 3.5 1.6 4.9 2.8 1.5 1.2 2.7 2.6 3.7 4.3 1.4 2.6 2.1 5.3 2.1 8.3l.1 28.4c0 2-.3 3.9-1 5.8-.6 1.9-1.6 3.6-2.7 5.2-1.2 1.6-2.6 2.9-4.2 3.9-2.5 1.6-5.2 2.4-8.2 2.4h-9.9l-.1.1h-8.5c-.4 0-.8-.1-1.2-.4-.4-.2-.7-.6-.9-1-.2-.4-.3-.8-.3-1.3zm18.3-8.1c1.3 0 2.5-.3 3.7-1 1.1-.7 2.1-1.6 2.8-2.8.7-1.1 1-2.4 1-3.7v-27.1c0-1.2-.3-2.3-.9-3.3s-1.4-1.8-2.4-2.4-2.1-.9-3.3-.9h-7.5c-.4 0-.7.1-.9.4-.3.3-.4.5-.4.9v39.2c0 .2.1.4.2.5s.3.2.5.2h7.2z"/></g></g></svg>